<?xml version="1.0" standalone="no"?>
<!DOCTYPE svg PUBLIC "-//W3C//DTD SVG 20010904//EN"
 "http://www.w3.org/TR/2001/REC-SVG-20010904/DTD/svg10.dtd">
<svg version="1.0" xmlns="http://www.w3.org/2000/svg"
 width="700.000000pt" height="700.000000pt" viewBox="0 0 700.000000 700.000000"
 preserveAspectRatio="xMidYMid meet">
<metadata>
Created by potrace 1.14, written by Peter Selinger 2001-2017
</metadata>
<g transform="translate(0.000000,700.000000) scale(0.100000,-0.100000)"
fill="#000000" stroke="none">
<path d="M3777 6864 c-1 -1 -74 -5 -162 -8 -88 -4 -176 -9 -195 -10 -19 -2
-71 -7 -115 -11 -76 -6 -341 -47 -395 -60 -14 -3 -46 -10 -73 -15 -26 -5 -89
-21 -140 -34 -585 -157 -1005 -451 -1245 -873 -27 -48 -59 -108 -70 -133 -57
-127 -121 -351 -137 -475 -3 -27 -10 -77 -15 -110 -5 -33 -12 -89 -15 -125 -4
-36 -8 -67 -10 -70 -2 -3 -6 -35 -9 -72 -4 -37 -9 -75 -11 -86 -4 -21 -12 -91
-20 -167 -3 -27 -7 -61 -10 -75 -2 -14 -7 -43 -9 -65 -6 -49 -26 -199 -31
-240 -6 -39 -22 -176 -31 -245 -3 -30 -7 -57 -9 -60 -2 -3 -6 -39 -10 -80 -4
-41 -8 -77 -10 -80 -1 -3 -6 -36 -10 -73 -3 -37 -8 -76 -10 -85 -1 -9 -6 -46
-10 -82 -4 -36 -9 -72 -10 -81 -2 -9 -6 -40 -10 -70 -3 -30 -8 -65 -10 -79 -2
-14 -7 -50 -10 -80 -3 -30 -8 -66 -10 -80 -3 -14 -7 -49 -9 -77 -3 -29 -8 -65
-10 -80 -5 -27 -20 -144 -31 -228 -13 -109 -36 -284 -41 -320 -3 -22 -7 -53
-9 -70 -6 -63 -17 -147 -20 -167 -3 -11 -7 -46 -10 -77 -4 -31 -11 -83 -16
-116 -32 -212 -41 -410 -25 -545 4 -35 9 -67 11 -70 2 -3 6 -21 9 -40 10 -64
57 -194 108 -294 156 -313 457 -559 872 -715 105 -40 295 -96 356 -106 8 -2
60 -12 115 -23 132 -26 239 -42 400 -57 337 -31 886 -18 1185 30 14 2 45 7 70
10 74 11 238 45 340 70 346 88 649 231 886 420 126 101 309 309 375 428 112
203 199 453 224 642 6 44 26 191 30 215 2 14 7 48 11 75 3 28 8 58 10 69 2 10
6 44 10 75 3 31 8 65 11 76 3 11 6 63 9 116 3 89 2 100 -24 150 -31 61 -80 95
-153 106 -59 9 -1121 8 -1183 -1 -27 -4 -70 -18 -96 -31 -97 -49 -141 -135
-170 -332 -35 -234 -56 -321 -99 -408 -89 -178 -240 -291 -467 -349 -128 -33
-197 -40 -369 -41 -157 0 -232 7 -327 29 -252 59 -403 185 -448 375 -15 63 -9
215 15 356 6 37 12 85 20 150 3 28 8 61 10 75 2 14 9 63 15 110 6 47 13 96 15
110 3 22 7 56 20 155 2 17 11 84 20 150 9 66 18 138 21 160 2 22 7 51 9 65 2
14 7 45 10 70 3 25 7 61 10 80 3 19 7 56 10 83 3 26 7 58 10 70 2 12 7 45 10
72 5 45 29 224 40 300 2 17 9 71 15 120 10 85 16 125 25 185 2 14 7 48 10 75
4 28 8 61 10 75 2 14 7 50 10 80 3 30 7 66 10 80 2 14 7 45 10 70 4 25 8 56
10 70 2 14 11 81 20 150 23 180 24 186 50 262 78 230 271 385 550 443 125 26
179 30 355 29 415 -2 667 -125 736 -359 22 -75 22 -181 0 -300 -46 -246 -28
-322 87 -383 l52 -27 620 0 620 0 53 24 c114 51 140 117 186 466 49 378 53
475 22 665 -51 316 -269 637 -566 835 -266 178 -530 276 -966 359 -12 2 -45 7
-75 11 -30 3 -61 8 -69 10 -8 2 -49 7 -90 11 -41 3 -91 8 -110 10 -91 9 -527
23 -533 18z"/>
</g>
</svg>
